<svg xmlns="http://www.w3.org/2000/svg" width="1366" height="750.467" viewBox="0 0 1366 750.467">
  <g id="Group_132" data-name="Group 132" transform="translate(2296 -371.533)">
    <rect id="Rectangle_480" data-name="Rectangle 480" width="1366" height="750" transform="translate(-2296 372)" fill="#fff"/>
    <path id="Path_199" data-name="Path 199" d="M-399.4,710.863s-41.13,84.85-11.692,134.247,69.825,58.866,77.019,109.984,18.541,122.959,0,181.042-4.784,185.387,142.242,152.319,117.939-108.629,142.49-226.6,12-350.987,12-350.987" transform="translate(-1867 -339)" fill="none" stroke="#e20346" stroke-width="1"/>
    <path id="Path_200" data-name="Path 200" d="M-348.161,710.863s-7.355,49.4,44.57,190.161,16.3,233.449,26.5,291.169,124.986,93.063,162.762-106.125,29.32-352.137,12.881-375.205" transform="translate(-1867 -339)" fill="none" stroke="#e20346" stroke-width="1"/>
    <path id="Path_201" data-name="Path 201" d="M-390.922,715.135s-58.139,103.077-15.363,165.572,93.73,68.577,111.913,139.148,26.941,185.6,0,259.086-12.393,213.135,201.245,171.3,113.16-178.668,187.738-308.256,43.168-426.83,43.168-426.83" transform="translate(-1457 -343)" fill="none" stroke="#e20346" stroke-width="1"/>
    <path id="Path_202" data-name="Path 202" d="M-347.936,710.863s-11.982,65.327,72.615,251.493,26.558,308.742,43.174,385.077S-28.515,1470.511,33.031,1207.08,80.8,741.372,54.017,710.863" transform="translate(-1449 -339)" fill="none" stroke="#e20346" stroke-width="1"/>
    <path id="Path_203" data-name="Path 203" d="M-348.019,710.863s-10.272,59.6,62.249,229.456,22.767,281.688,37.011,351.334S-74.2,1403.946-21.438,1163.6,18.8,737.711-4.163,709.876" transform="translate(-948 -338)" fill="none" stroke="#e20346" stroke-width="1"/>
  </g>
</svg>
