<svg id="Layer_5" enable-background="new 0 0 62 62" height="512" viewBox="0 0 62 62" width="512" xmlns="http://www.w3.org/2000/svg"><g><g><g><path d="m59 1v12h-54v-12z" fill="#fcd770"/></g><g><path d="m51 31c-1.1 0-2 .9-2 2v1.68c0 2.58-1.65 4.87-4.1 5.69l-1.14.38c-.5.16-.98.4-1.43.7l-2.33 1.55h-13.7-.01c-.34-.72-.8-1.37-1.36-1.93-1.28-1.28-3.05-2.07-5-2.07-1.88 0-3.67.74-5 2.07l-.93.93-.93-.93c-1.33-1.33-3.12-2.07-5-2.07-1.1 0-2.14.25-3.07.71v-.01-26.7h54v30h-5.6l1.53-7.65c.05-.23.07-.47.07-.71 0-2.01-1.63-3.64-3.64-3.64z" fill="#e6e9ed"/></g><g><path d="m40 43v14h-21l5.93-5.93c1.33-1.33 2.07-3.12 2.07-5 0-1.1-.25-2.14-.71-3.07h.01z" fill="#4fc1e9"/></g><g><path d="m60.41 47.59c.37.36.59.86.59 1.41 0 1.1-.9 2-2 2h-6c-.55 0-1.05-.22-1.41-.59-.37-.36-.59-.86-.59-1.41 0-1.1.9-2 2-2h6c.55 0 1.05.22 1.41.59z" fill="#f0d0b4"/></g><g><path d="m60.41 51.59c.37.36.59.86.59 1.41 0 1.1-.9 2-2 2h-6c-.55 0-1.05-.22-1.41-.59-.37-.36-.59-.86-.59-1.41 0-1.1.9-2 2-2h6c.55 0 1.05.22 1.41.59z" fill="#f0d0b4"/></g><g><path d="m60.41 43.59c.37.36.59.86.59 1.41 0 1.1-.9 2-2 2h-6c-.55 0-1.05-.22-1.41-.59-.37-.36-.59-.86-.59-1.41 0-1.1.9-2 2-2h.4 5.6c.55 0 1.05.22 1.41.59z" fill="#f0d0b4"/></g><g><path d="m60.41 55.59c.37.36.59.86.59 1.41 0 1.1-.9 2-2 2h-1-5c-.55 0-1.05-.22-1.41-.59-.37-.36-.59-.86-.59-1.41 0-1.1.9-2 2-2h6c.55 0 1.05.22 1.41.59z" fill="#f0d0b4"/></g><g><path d="m55 34.64c0 .24-.02.48-.07.71l-1.53 7.65h-.4c-1.1 0-2 .9-2 2 0 .55.22 1.05.59 1.41.36.37.86.59 1.41.59-1.1 0-2 .9-2 2 0 .55.22 1.05.59 1.41.36.37.86.59 1.41.59-1.1 0-2 .9-2 2 0 .55.22 1.05.59 1.41.36.37.86.59 1.41.59-1.1 0-2 .9-2 2 0 .55.22 1.05.59 1.41.36.37.86.59 1.41.59h-7.58c-.94 0-1.85-.22-2.69-.63l-2.73-1.37v-14l2.33-1.55c.45-.3.93-.54 1.43-.7l1.14-.38c2.45-.82 4.1-3.11 4.1-5.69v-1.68c0-1.1.9-2 2-2h.36c2.01 0 3.64 1.63 3.64 3.64z" fill="#f0d0b4"/></g><g><path d="m26.29 43c.46.93.71 1.97.71 3.07 0 1.88-.74 3.67-2.07 5l-5.93 5.93-3.29 3.29c-.46.46-1.07.71-1.71.71s-1.25-.25-1.71-.71l-9.22-9.22c-1.33-1.33-2.07-3.12-2.07-5 0-1.95.79-3.72 2.07-5 .56-.56 1.21-1.02 1.93-1.36.93-.46 1.97-.71 3.07-.71 1.88 0 3.67.74 5 2.07l.93.93.93-.93c1.33-1.33 3.12-2.07 5-2.07 1.95 0 3.72.79 5 2.07.56.56 1.02 1.21 1.36 1.93z" fill="#ff826e"/></g><g><path d="m25 5h4v4h-4z" fill="#e6e9ed"/></g><g><path d="m17 5h4v4h-4z" fill="#e6e9ed"/></g><g><path d="m9 5h4v4h-4z" fill="#e6e9ed"/></g><g><path d="m35 19v14c0 1.1-.9 2-2 2h-22c-1.1 0-2-.9-2-2v-14c0-1.1.9-2 2-2h22c1.1 0 2 .9 2 2z" fill="#ffeaa7"/></g><g><path d="m27 26-10 5v-10z" fill="#ff826e"/></g></g><g><path d="m61.22 47c.48-.532.78-1.229.78-2 0-1.302-.839-2.402-2-2.816v-42.184h-56v39.114c-2.388 1.403-4 3.993-4 6.957 0 2.156.84 4.183 2.364 5.707l9.222 9.222c.646.645 1.503 1 2.414 1s1.769-.355 2.414-1l3-3h20.35l2.522 1.261c.967.484 2.049.739 3.13.739h7.581.003 6c1.654 0 3-1.346 3-3 0-.771-.301-1.468-.78-2 .48-.532.78-1.229.78-2s-.301-1.468-.78-2c.48-.532.78-1.229.78-2s-.301-1.468-.78-2zm-1.22 6c0 .551-.448 1-1 1h-6c-.552 0-1-.449-1-1s.448-1 1-1h6c.552 0 1 .449 1 1zm-8-8c0-.551.448-1 1-1h6c.552 0 1 .449 1 1s-.448 1-1 1h-6c-.552 0-1-.449-1-1zm1 5c-.552 0-1-.449-1-1s.448-1 1-1h6c.552 0 1 .449 1 1s-.448 1-1 1zm5-48v10h-52v-10zm-52 12h52v28h-3.38l1.29-6.451c.06-.299.09-.605.09-.909 0-1.239-.482-2.404-1.359-3.28-.876-.876-2.041-1.358-3.279-1.358h-.002v-.002h-5.36v-2h-2v2h-6v2h6v2h2v-2h2.185c-.113.315-.185.648-.185 1.001v1.675c0 2.156-1.374 4.062-3.419 4.744l-1.135.378c-.59.196-1.151.471-1.67.816l-2.078 1.386h-12.812c-1.403-2.389-3.993-4-6.958-4-2.155 0-4.183.84-5.707 2.364l-.221.222-.222-.222c-1.524-1.524-3.551-2.364-5.707-2.364-.717 0-1.409.103-2.071.279zm9 45.585c-.535.535-1.465.535-2 0l-9.222-9.222c-1.146-1.146-1.778-2.67-1.778-4.292 0-3.347 2.724-6.071 6.071-6.071 1.621 0 3.146.631 4.293 1.778l1.636 1.636 1.636-1.636c1.146-1.147 2.672-1.778 4.293-1.778 3.347 0 6.071 2.724 6.071 6.071 0 1.622-.632 3.146-1.778 4.293zm24-3.585h-17.586l4.222-4.222c1.524-1.524 2.364-3.551 2.364-5.707 0-.717-.103-1.409-.279-2.071h11.279zm4.181 1.472-2.181-1.09v-12.846l1.886-1.257c.37-.247.771-.443 1.193-.583l1.135-.378c2.862-.956 4.786-3.625 4.786-6.642v-1.675c0-.551.449-1 1-1h.36.001c.704 0 1.367.274 1.865.772.5.499.774 1.162.774 1.867 0 .174-.018.349-.051.518l-1.377 6.886c-1.45.209-2.572 1.448-2.572 2.956 0 .771.301 1.468.78 2-.48.532-.78 1.229-.78 2s.301 1.468.78 2c-.48.532-.78 1.229-.78 2s.301 1.468.78 2c-.48.532-.78 1.229-.78 2 0 .352.072.686.184 1h-4.768c-.771 0-1.545-.183-2.235-.528zm15.819.528h-1-5.001c-.552-.001-.999-.449-.999-1s.448-1 1-1h6c.552 0 1 .449 1 1s-.448 1-1 1z"/><path d="m6 46.071c0-1.142.929-2.071 2.071-2.071v-2c-2.245 0-4.071 1.826-4.071 4.071 0 1.071.435 2.12 1.192 2.878l4.12 4.121 1.414-1.414-4.12-4.121c-.385-.385-.606-.919-.606-1.464z"/><path d="m11.338 53.748h2v1.866h-2z" transform="matrix(.707 -.707 .707 .707 -35.052 24.74)"/><path d="m14 4h-6v6h6zm-2 4h-2v-2h2z"/><path d="m22 4h-6v6h6zm-2 4h-2v-2h2z"/><path d="m30 4h-6v6h6zm-2 4h-2v-2h2z"/><path d="m11 36h22c1.654 0 3-1.346 3-3v-14c0-1.654-1.346-3-3-3h-22c-1.654 0-3 1.346-3 3v14c0 1.654 1.346 3 3 3zm-1-17c0-.551.448-1 1-1h22c.552 0 1 .449 1 1v14c0 .551-.448 1-1 1h-22c-.552 0-1-.449-1-1z"/><path d="m16 19.382v13.236l13.236-6.618zm2 3.236 6.764 3.382-6.764 3.382z"/><path d="m40 22h2v-2h14v-2h-14v-2h-2v2h-2v2h2z"/><path d="m52 28h2v-2h2v-2h-2v-2h-2v2h-14v2h14z"/></g></g></svg>